{
    "frames": [
        {
            "media_type": "video",
            "key_frame": 1,
            "pkt_pts": 244244,
            "pkt_pts_time": "8.141467",
            "pkt_dts": 244244,
            "pkt_dts_time": "8.141467",
            "best_effort_timestamp": 244244,
            "best_effort_timestamp_time": "8.141467",
            "pkt_pos": "1136884",
            "pkt_size": "2764800",
            "width": 1280,
            "height": 720,
            "pix_fmt": "rgb24",
            "sample_aspect_ratio": "1:1",
            "pict_type": "I",
            "coded_picture_number": 0,
            "display_picture_number": 0,
            "interlaced_frame": 0,
            "top_field_first": 0,
            "repeat_pict": 0,
            "tags": {
                "lavfi.scene_score": "0.577304"
            }
        },
        {
            "media_type": "video",
            "key_frame": 1,
            "pkt_pts": 352352,
            "pkt_pts_time": "11.745067",
            "pkt_dts": 352352,
            "pkt_dts_time": "11.745067",
            "best_effort_timestamp": 352352,
            "best_effort_timestamp_time": "11.745067",
            "pkt_pos": "2126697",
            "pkt_size": "2764800",
            "width": 1280,
            "height": 720,
            "pix_fmt": "rgb24",
            "sample_aspect_ratio": "1:1",
            "pict_type": "I",
            "coded_picture_number": 0,
            "display_picture_number": 0,
            "interlaced_frame": 0,
            "top_field_first": 0,
            "repeat_pict": 0,
            "tags": {
                "lavfi.scene_score": "0.598949"
            }
        },
        {
            "media_type": "video",
            "key_frame": 1,
            "pkt_pts": 420420,
            "pkt_pts_time": "14.014000",
            "pkt_dts": 420420,
            "pkt_dts_time": "14.014000",
            "best_effort_timestamp": 420420,
            "best_effort_timestamp_time": "14.014000",
            "pkt_pos": "2826364",
            "pkt_size": "2764800",
            "width": 1280,
            "height": 720,
            "pix_fmt": "rgb24",
            "sample_aspect_ratio": "1:1",
            "pict_type": "I",
            "coded_picture_number": 0,
            "display_picture_number": 0,
            "interlaced_frame": 0,
            "top_field_first": 0,
            "repeat_pict": 0,
            "tags": {
                "lavfi.scene_score": "0.533418"
            }
        },
        {
            "media_type": "video",
            "key_frame": 1,
            "pkt_pts": 463463,
            "pkt_pts_time": "15.448767",
            "pkt_dts": 463463,
            "pkt_dts_time": "15.448767",
            "best_effort_timestamp": 463463,
            "best_effort_timestamp_time": "15.448767",
            "pkt_pos": "3472087",
            "pkt_size": "2764800",
            "width": 1280,
            "height": 720,
            "pix_fmt": "rgb24",
            "sample_aspect_ratio": "1:1",
            "pict_type": "I",
            "coded_picture_number": 0,
            "display_picture_number": 0,
            "interlaced_frame": 0,
            "top_field_first": 0,
            "repeat_pict": 0,
            "tags": {
                "lavfi.scene_score": "0.418316"
            }
        },
        {
            "media_type": "video",
            "key_frame": 1,
            "pkt_pts": 553553,
            "pkt_pts_time": "18.451767",
            "pkt_dts": 553553,
            "pkt_dts_time": "18.451767",
            "best_effort_timestamp": 553553,
            "best_effort_timestamp_time": "18.451767",
            "pkt_pos": "4583321",
            "pkt_size": "2764800",
            "width": 1280,
            "height": 720,
            "pix_fmt": "rgb24",
            "sample_aspect_ratio": "1:1",
            "pict_type": "I",
            "coded_picture_number": 0,
            "display_picture_number": 0,
            "interlaced_frame": 0,
            "top_field_first": 0,
            "repeat_pict": 0,
            "tags": {
                "lavfi.scene_score": "0.459831"
            }
        },
        {
            "media_type": "video",
            "key_frame": 1,
            "pkt_pts": 632632,
            "pkt_pts_time": "21.087733",
            "pkt_dts": 632632,
            "pkt_dts_time": "21.087733",
            "best_effort_timestamp": 632632,
            "best_effort_timestamp_time": "21.087733",
            "pkt_pos": "4996563",
            "pkt_size": "2764800",
            "width": 1280,
            "height": 720,
            "pix_fmt": "rgb24",
            "sample_aspect_ratio": "1:1",
            "pict_type": "I",
            "coded_picture_number": 0,
            "display_picture_number": 0,
            "interlaced_frame": 0,
            "top_field_first": 0,
            "repeat_pict": 0,
            "tags": {
                "lavfi.scene_score": "0.523449"
            }
        },
        {
            "media_type": "video",
            "key_frame": 1,
            "pkt_pts": 720720,
            "pkt_pts_time": "24.024000",
            "pkt_dts": 720720,
            "pkt_dts_time": "24.024000",
            "best_effort_timestamp": 720720,
            "best_effort_timestamp_time": "24.024000",
            "pkt_pos": "5640619",
            "pkt_size": "2764800",
            "width": 1280,
            "height": 720,
            "pix_fmt": "rgb24",
            "sample_aspect_ratio": "1:1",
            "pict_type": "I",
            "coded_picture_number": 0,
            "display_picture_number": 0,
            "interlaced_frame": 0,
            "top_field_first": 0,
            "repeat_pict": 0,
            "tags": {
                "lavfi.scene_score": "0.499394"
            }
        },
        {
            "media_type": "video",
            "key_frame": 1,
            "pkt_pts": 846846,
            "pkt_pts_time": "28.228200",
            "pkt_dts": 846846,
            "pkt_dts_time": "28.228200",
            "best_effort_timestamp": 846846,
            "best_effort_timestamp_time": "28.228200",
            "pkt_pos": "7159661",
            "pkt_size": "2764800",
            "width": 1280,
            "height": 720,
            "pix_fmt": "rgb24",
            "sample_aspect_ratio": "1:1",
            "pict_type": "I",
            "coded_picture_number": 0,
            "display_picture_number": 0,
            "interlaced_frame": 0,
            "top_field_first": 0,
            "repeat_pict": 0,
            "tags": {
                "lavfi.scene_score": "0.408580"
            }
        },
        {
            "media_type": "video",
            "key_frame": 1,
            "pkt_pts": 1189188,
            "pkt_pts_time": "39.639600",
            "pkt_dts": 1189188,
            "pkt_dts_time": "39.639600",
            "best_effort_timestamp": 1189188,
            "best_effort_timestamp_time": "39.639600",
            "pkt_pos": "12558566",
            "pkt_size": "2764800",
            "width": 1280,
            "height": 720,
            "pix_fmt": "rgb24",
            "sample_aspect_ratio": "1:1",
            "pict_type": "I",
            "coded_picture_number": 0,
            "display_picture_number": 0,
            "interlaced_frame": 0,
            "top_field_first": 0,
            "repeat_pict": 0,
            "tags": {
                "lavfi.scene_score": "0.639250"
            }
        },
        {
            "media_type": "video",
            "key_frame": 1,
            "pkt_pts": 1355354,
            "pkt_pts_time": "45.178467",
            "pkt_dts": 1355354,
            "pkt_dts_time": "45.178467",
            "best_effort_timestamp": 1355354,
            "best_effort_timestamp_time": "45.178467",
            "pkt_pos": "13683954",
            "pkt_size": "2764800",
            "width": 1280,
            "height": 720,
            "pix_fmt": "rgb24",
            "sample_aspect_ratio": "1:1",
            "pict_type": "I",
            "coded_picture_number": 0,
            "display_picture_number": 0,
            "interlaced_frame": 0,
            "top_field_first": 0,
            "repeat_pict": 0,
            "tags": {
                "lavfi.scene_score": "0.603788"
            }
        },
        {
            "media_type": "video",
            "key_frame": 1,
            "pkt_pts": 1452451,
            "pkt_pts_time": "48.415033",
            "pkt_dts": 1452451,
            "pkt_dts_time": "48.415033",
            "best_effort_timestamp": 1452451,
            "best_effort_timestamp_time": "48.415033",
            "pkt_pos": "14143833",
            "pkt_size": "2764800",
            "width": 1280,
            "height": 720,
            "pix_fmt": "rgb24",
            "sample_aspect_ratio": "1:1",
            "pict_type": "I",
            "coded_picture_number": 0,
            "display_picture_number": 0,
            "interlaced_frame": 0,
            "top_field_first": 0,
            "repeat_pict": 0,
            "tags": {
                "lavfi.scene_score": "0.388131"
            }
        },
        {
            "media_type": "video",
            "key_frame": 1,
            "pkt_pts": 1582581,
            "pkt_pts_time": "52.752700",
            "pkt_dts": 1582581,
            "pkt_dts_time": "52.752700",
            "best_effort_timestamp": 1582581,
            "best_effort_timestamp_time": "52.752700",
            "pkt_pos": "15432967",
            "pkt_size": "2764800",
            "width": 1280,
            "height": 720,
            "pix_fmt": "rgb24",
            "sample_aspect_ratio": "1:1",
            "pict_type": "I",
            "coded_picture_number": 0,
            "display_picture_number": 0,
            "interlaced_frame": 0,
            "top_field_first": 0,
            "repeat_pict": 0,
            "tags": {
                "lavfi.scene_score": "0.382473"
            }
        },
        {
            "media_type": "video",
            "key_frame": 1,
            "pkt_pts": 1638637,
            "pkt_pts_time": "54.621233",
            "pkt_dts": 1638637,
            "pkt_dts_time": "54.621233",
            "best_effort_timestamp": 1638637,
            "best_effort_timestamp_time": "54.621233",
            "pkt_pos": "16084837",
            "pkt_size": "2764800",
            "width": 1280,
            "height": 720,
            "pix_fmt": "rgb24",
            "sample_aspect_ratio": "1:1",
            "pict_type": "I",
            "coded_picture_number": 0,
            "display_picture_number": 0,
            "interlaced_frame": 0,
            "top_field_first": 0,
            "repeat_pict": 0,
            "tags": {
                "lavfi.scene_score": "0.394518"
            }
        },
        {
            "media_type": "video",
            "key_frame": 1,
            "pkt_pts": 1705704,
            "pkt_pts_time": "56.856800",
            "pkt_dts": 1705704,
            "pkt_dts_time": "56.856800",
            "best_effort_timestamp": 1705704,
            "best_effort_timestamp_time": "56.856800",
            "pkt_pos": "16369810",
            "pkt_size": "2764800",
            "width": 1280,
            "height": 720,
            "pix_fmt": "rgb24",
            "sample_aspect_ratio": "1:1",
            "pict_type": "I",
            "coded_picture_number": 0,
            "display_picture_number": 0,
            "interlaced_frame": 0,
            "top_field_first": 0,
            "repeat_pict": 0,
            "tags": {
                "lavfi.scene_score": "0.445221"
            }
        },
        {
            "media_type": "video",
            "key_frame": 1,
            "pkt_pts": 1846845,
            "pkt_pts_time": "61.561500",
            "pkt_dts": 1846845,
            "pkt_dts_time": "61.561500",
            "best_effort_timestamp": 1846845,
            "best_effort_timestamp_time": "61.561500",
            "pkt_pos": "17026579",
            "pkt_size": "2764800",
            "width": 1280,
            "height": 720,
            "pix_fmt": "rgb24",
            "sample_aspect_ratio": "1:1",
            "pict_type": "I",
            "coded_picture_number": 0,
            "display_picture_number": 0,
            "interlaced_frame": 0,
            "top_field_first": 0,
            "repeat_pict": 0,
            "tags": {
                "lavfi.scene_score": "0.571387"
            }
        },
        {
            "media_type": "video",
            "key_frame": 1,
            "pkt_pts": 1934933,
            "pkt_pts_time": "64.497767",
            "pkt_dts": 1934933,
            "pkt_dts_time": "64.497767",
            "best_effort_timestamp": 1934933,
            "best_effort_timestamp_time": "64.497767",
            "pkt_pos": "17920364",
            "pkt_size": "2764800",
            "width": 1280,
            "height": 720,
            "pix_fmt": "rgb24",
            "sample_aspect_ratio": "1:1",
            "pict_type": "I",
            "coded_picture_number": 0,
            "display_picture_number": 0,
            "interlaced_frame": 0,
            "top_field_first": 0,
            "repeat_pict": 0,
            "tags": {
                "lavfi.scene_score": "0.505096"
            }
        },
        {
            "media_type": "video",
            "key_frame": 1,
            "pkt_pts": 2107105,
            "pkt_pts_time": "70.236833",
            "pkt_dts": 2107105,
            "pkt_dts_time": "70.236833",
            "best_effort_timestamp": 2107105,
            "best_effort_timestamp_time": "70.236833",
            "pkt_pos": "21434848",
            "pkt_size": "2764800",
            "width": 1280,
            "height": 720,
            "pix_fmt": "rgb24",
            "sample_aspect_ratio": "1:1",
            "pict_type": "I",
            "coded_picture_number": 0,
            "display_picture_number": 0,
            "interlaced_frame": 0,
            "top_field_first": 0,
            "repeat_pict": 0,
            "tags": {
                "lavfi.scene_score": "0.383643"
            }
        },
        {
            "media_type": "video",
            "key_frame": 1,
            "pkt_pts": 2179177,
            "pkt_pts_time": "72.639233",
            "pkt_dts": 2179177,
            "pkt_dts_time": "72.639233",
            "best_effort_timestamp": 2179177,
            "best_effort_timestamp_time": "72.639233",
            "pkt_pos": "22041651",
            "pkt_size": "2764800",
            "width": 1280,
            "height": 720,
            "pix_fmt": "rgb24",
            "sample_aspect_ratio": "1:1",
            "pict_type": "I",
            "coded_picture_number": 0,
            "display_picture_number": 0,
            "interlaced_frame": 0,
            "top_field_first": 0,
            "repeat_pict": 0,
            "tags": {
                "lavfi.scene_score": "0.586502"
            }
        },
        {
            "media_type": "video",
            "key_frame": 1,
            "pkt_pts": 2319317,
            "pkt_pts_time": "77.310567",
            "pkt_dts": 2319317,
            "pkt_dts_time": "77.310567",
            "best_effort_timestamp": 2319317,
            "best_effort_timestamp_time": "77.310567",
            "pkt_pos": "23030230",
            "pkt_size": "2764800",
            "width": 1280,
            "height": 720,
            "pix_fmt": "rgb24",
            "sample_aspect_ratio": "1:1",
            "pict_type": "I",
            "coded_picture_number": 0,
            "display_picture_number": 0,
            "interlaced_frame": 0,
            "top_field_first": 0,
            "repeat_pict": 0,
            "tags": {
                "lavfi.scene_score": "0.537585"
            }
        },
        {
            "media_type": "video",
            "key_frame": 1,
            "pkt_pts": 2442440,
            "pkt_pts_time": "81.414667",
            "pkt_dts": 2442440,
            "pkt_dts_time": "81.414667",
            "best_effort_timestamp": 2442440,
            "best_effort_timestamp_time": "81.414667",
            "pkt_pos": "23709608",
            "pkt_size": "2764800",
            "width": 1280,
            "height": 720,
            "pix_fmt": "rgb24",
            "sample_aspect_ratio": "1:1",
            "pict_type": "I",
            "coded_picture_number": 0,
            "display_picture_number": 0,
            "interlaced_frame": 0,
            "top_field_first": 0,
            "repeat_pict": 0,
            "tags": {
                "lavfi.scene_score": "0.498207"
            }
        },
        {
            "media_type": "video",
            "key_frame": 1,
            "pkt_pts": 2641639,
            "pkt_pts_time": "88.054633",
            "pkt_dts": 2641639,
            "pkt_dts_time": "88.054633",
            "best_effort_timestamp": 2641639,
            "best_effort_timestamp_time": "88.054633",
            "pkt_pos": "25449791",
            "pkt_size": "2764800",
            "width": 1280,
            "height": 720,
            "pix_fmt": "rgb24",
            "sample_aspect_ratio": "1:1",
            "pict_type": "I",
            "coded_picture_number": 0,
            "display_picture_number": 0,
            "interlaced_frame": 0,
            "top_field_first": 0,
            "repeat_pict": 0,
            "tags": {
                "lavfi.scene_score": "0.842369"
            }
        },
        {
            "media_type": "video",
            "key_frame": 1,
            "pkt_pts": 2721719,
            "pkt_pts_time": "90.723967",
            "pkt_dts": 2721719,
            "pkt_dts_time": "90.723967",
            "best_effort_timestamp": 2721719,
            "best_effort_timestamp_time": "90.723967",
            "pkt_duration": 1001,
            "pkt_duration_time": "0.033367",
            "pkt_pos": "26415809",
            "pkt_size": "2764800",
            "width": 1280,
            "height": 720,
            "pix_fmt": "rgb24",
            "sample_aspect_ratio": "1:1",
            "pict_type": "I",
            "coded_picture_number": 0,
            "display_picture_number": 0,
            "interlaced_frame": 0,
            "top_field_first": 0,
            "repeat_pict": 0,
            "tags": {
                "lavfi.scene_score": "0.711866"
            }
        },
        {
            "media_type": "video",
            "key_frame": 1,
            "pkt_pts": 2763761,
            "pkt_pts_time": "92.125367",
            "pkt_dts": 2763761,
            "pkt_dts_time": "92.125367",
            "best_effort_timestamp": 2763761,
            "best_effort_timestamp_time": "92.125367",
            "pkt_duration": 1001,
            "pkt_duration_time": "0.033367",
            "pkt_pos": "26792385",
            "pkt_size": "2764800",
            "width": 1280,
            "height": 720,
            "pix_fmt": "rgb24",
            "sample_aspect_ratio": "1:1",
            "pict_type": "I",
            "coded_picture_number": 0,
            "display_picture_number": 0,
            "interlaced_frame": 0,
            "top_field_first": 0,
            "repeat_pict": 0,
            "tags": {
                "lavfi.scene_score": "0.553101"
            }
        },
        {
            "media_type": "video",
            "key_frame": 1,
            "pkt_pts": 2899897,
            "pkt_pts_time": "96.663233",
            "pkt_dts": 2899897,
            "pkt_dts_time": "96.663233",
            "best_effort_timestamp": 2899897,
            "best_effort_timestamp_time": "96.663233",
            "pkt_duration": 1001,
            "pkt_duration_time": "0.033367",
            "pkt_pos": "27942623",
            "pkt_size": "2764800",
            "width": 1280,
            "height": 720,
            "pix_fmt": "rgb24",
            "sample_aspect_ratio": "1:1",
            "pict_type": "I",
            "coded_picture_number": 0,
            "display_picture_number": 0,
            "interlaced_frame": 0,
            "top_field_first": 0,
            "repeat_pict": 0,
            "tags": {
                "lavfi.scene_score": "0.318468"
            }
        },
        {
            "media_type": "video",
            "key_frame": 1,
            "pkt_pts": 2936934,
            "pkt_pts_time": "97.897800",
            "pkt_dts": 2936934,
            "pkt_dts_time": "97.897800",
            "best_effort_timestamp": 2936934,
            "best_effort_timestamp_time": "97.897800",
            "pkt_duration": 1001,
            "pkt_duration_time": "0.033367",
            "pkt_pos": "28327082",
            "pkt_size": "2764800",
            "width": 1280,
            "height": 720,
            "pix_fmt": "rgb24",
            "sample_aspect_ratio": "1:1",
            "pict_type": "I",
            "coded_picture_number": 0,
            "display_picture_number": 0,
            "interlaced_frame": 0,
            "top_field_first": 0,
            "repeat_pict": 0,
            "tags": {
                "lavfi.scene_score": "0.335037"
            }
        },
        {
            "media_type": "video",
            "key_frame": 1,
            "pkt_pts": 3084081,
            "pkt_pts_time": "102.802700",
            "pkt_dts": 3084081,
            "pkt_dts_time": "102.802700",
            "best_effort_timestamp": 3084081,
            "best_effort_timestamp_time": "102.802700",
            "pkt_duration": 1001,
            "pkt_duration_time": "0.033367",
            "pkt_pos": "29976766",
            "pkt_size": "2764800",
            "width": 1280,
            "height": 720,
            "pix_fmt": "rgb24",
            "sample_aspect_ratio": "1:1",
            "pict_type": "I",
            "coded_picture_number": 0,
            "display_picture_number": 0,
            "interlaced_frame": 0,
            "top_field_first": 0,
            "repeat_pict": 0,
            "tags": {
                "lavfi.scene_score": "0.445547"
            }
        },
        {
            "media_type": "video",
            "key_frame": 1,
            "pkt_pts": 3156153,
            "pkt_pts_time": "105.205100",
            "pkt_dts": 3156153,
            "pkt_dts_time": "105.205100",
            "best_effort_timestamp": 3156153,
            "best_effort_timestamp_time": "105.205100",
            "pkt_duration": 1001,
            "pkt_duration_time": "0.033367",
            "pkt_pos": "30634703",
            "pkt_size": "2764800",
            "width": 1280,
            "height": 720,
            "pix_fmt": "rgb24",
            "sample_aspect_ratio": "1:1",
            "pict_type": "I",
            "coded_picture_number": 0,
            "display_picture_number": 0,
            "interlaced_frame": 0,
            "top_field_first": 0,
            "repeat_pict": 0,
            "tags": {
                "lavfi.scene_score": "0.382911"
            }
        },
        {
            "media_type": "video",
            "key_frame": 1,
            "pkt_pts": 3219216,
            "pkt_pts_time": "107.307200",
            "pkt_dts": 3219216,
            "pkt_dts_time": "107.307200",
            "best_effort_timestamp": 3219216,
            "best_effort_timestamp_time": "107.307200",
            "pkt_duration": 1001,
            "pkt_duration_time": "0.033367",
            "pkt_pos": "31018702",
            "pkt_size": "2764800",
            "width": 1280,
            "height": 720,
            "pix_fmt": "rgb24",
            "sample_aspect_ratio": "1:1",
            "pict_type": "I",
            "coded_picture_number": 0,
            "display_picture_number": 0,
            "interlaced_frame": 0,
            "top_field_first": 0,
            "repeat_pict": 0,
            "tags": {
                "lavfi.scene_score": "0.796638"
            }
        },
        {
            "media_type": "video",
            "key_frame": 1,
            "pkt_pts": 3300297,
            "pkt_pts_time": "110.009900",
            "pkt_dts": 3300297,
            "pkt_dts_time": "110.009900",
            "best_effort_timestamp": 3300297,
            "best_effort_timestamp_time": "110.009900",
            "pkt_duration": 1001,
            "pkt_duration_time": "0.033367",
            "pkt_pos": "31353865",
            "pkt_size": "2764800",
            "width": 1280,
            "height": 720,
            "pix_fmt": "rgb24",
            "sample_aspect_ratio": "1:1",
            "pict_type": "I",
            "coded_picture_number": 0,
            "display_picture_number": 0,
            "interlaced_frame": 0,
            "top_field_first": 0,
            "repeat_pict": 0,
            "tags": {
                "lavfi.scene_score": "0.810851"
            }
        },
        {
            "media_type": "video",
            "key_frame": 1,
            "pkt_pts": 3558555,
            "pkt_pts_time": "118.618500",
            "pkt_dts": 3558555,
            "pkt_dts_time": "118.618500",
            "best_effort_timestamp": 3558555,
            "best_effort_timestamp_time": "118.618500",
            "pkt_duration": 1001,
            "pkt_duration_time": "0.033367",
            "pkt_pos": "35371007",
            "pkt_size": "2764800",
            "width": 1280,
            "height": 720,
            "pix_fmt": "rgb24",
            "sample_aspect_ratio": "1:1",
            "pict_type": "I",
            "coded_picture_number": 0,
            "display_picture_number": 0,
            "interlaced_frame": 0,
            "top_field_first": 0,
            "repeat_pict": 0,
            "tags": {
                "lavfi.scene_score": "0.332439"
            }
        },
        {
            "media_type": "video",
            "key_frame": 1,
            "pkt_pts": 3662659,
            "pkt_pts_time": "122.088633",
            "pkt_dts": 3662659,
            "pkt_dts_time": "122.088633",
            "best_effort_timestamp": 3662659,
            "best_effort_timestamp_time": "122.088633",
            "pkt_duration": 1001,
            "pkt_duration_time": "0.033367",
            "pkt_pos": "35903988",
            "pkt_size": "2764800",
            "width": 1280,
            "height": 720,
            "pix_fmt": "rgb24",
            "sample_aspect_ratio": "1:1",
            "pict_type": "I",
            "coded_picture_number": 0,
            "display_picture_number": 0,
            "interlaced_frame": 0,
            "top_field_first": 0,
            "repeat_pict": 0,
            "tags": {
                "lavfi.scene_score": "0.450224"
            }
        },
        {
            "media_type": "video",
            "key_frame": 1,
            "pkt_pts": 3801798,
            "pkt_pts_time": "126.726600",
            "pkt_dts": 3801798,
            "pkt_dts_time": "126.726600",
            "best_effort_timestamp": 3801798,
            "best_effort_timestamp_time": "126.726600",
            "pkt_duration": 1001,
            "pkt_duration_time": "0.033367",
            "pkt_pos": "36978404",
            "pkt_size": "2764800",
            "width": 1280,
            "height": 720,
            "pix_fmt": "rgb24",
            "sample_aspect_ratio": "1:1",
            "pict_type": "I",
            "coded_picture_number": 0,
            "display_picture_number": 0,
            "interlaced_frame": 0,
            "top_field_first": 0,
            "repeat_pict": 0,
            "tags": {
                "lavfi.scene_score": "0.513161"
            }
        },
        {
            "media_type": "video",
            "key_frame": 1,
            "pkt_pts": 3868865,
            "pkt_pts_time": "128.962167",
            "pkt_dts": 3868865,
            "pkt_dts_time": "128.962167",
            "best_effort_timestamp": 3868865,
            "best_effort_timestamp_time": "128.962167",
            "pkt_duration": 1001,
            "pkt_duration_time": "0.033367",
            "pkt_pos": "37267288",
            "pkt_size": "2764800",
            "width": 1280,
            "height": 720,
            "pix_fmt": "rgb24",
            "sample_aspect_ratio": "1:1",
            "pict_type": "I",
            "coded_picture_number": 0,
            "display_picture_number": 0,
            "interlaced_frame": 0,
            "top_field_first": 0,
            "repeat_pict": 0,
            "tags": {
                "lavfi.scene_score": "0.599215"
            }
        },
        {
            "media_type": "video",
            "key_frame": 1,
            "pkt_pts": 4027023,
            "pkt_pts_time": "134.234100",
            "pkt_dts": 4027023,
            "pkt_dts_time": "134.234100",
            "best_effort_timestamp": 4027023,
            "best_effort_timestamp_time": "134.234100",
            "pkt_duration": 1001,
            "pkt_duration_time": "0.033367",
            "pkt_pos": "39625972",
            "pkt_size": "2764800",
            "width": 1280,
            "height": 720,
            "pix_fmt": "rgb24",
            "sample_aspect_ratio": "1:1",
            "pict_type": "I",
            "coded_picture_number": 0,
            "display_picture_number": 0,
            "interlaced_frame": 0,
            "top_field_first": 0,
            "repeat_pict": 0,
            "tags": {
                "lavfi.scene_score": "0.538862"
            }
        },
        {
            "media_type": "video",
            "key_frame": 1,
            "pkt_pts": 4344340,
            "pkt_pts_time": "144.811333",
            "pkt_dts": 4344340,
            "pkt_dts_time": "144.811333",
            "best_effort_timestamp": 4344340,
            "best_effort_timestamp_time": "144.811333",
            "pkt_duration": 1001,
            "pkt_duration_time": "0.033367",
            "pkt_pos": "45514703",
            "pkt_size": "2764800",
            "width": 1280,
            "height": 720,
            "pix_fmt": "rgb24",
            "sample_aspect_ratio": "1:1",
            "pict_type": "I",
            "coded_picture_number": 0,
            "display_picture_number": 0,
            "interlaced_frame": 0,
            "top_field_first": 0,
            "repeat_pict": 0,
            "tags": {
                "lavfi.scene_score": "0.545679"
            }
        },
        {
            "media_type": "video",
            "key_frame": 1,
            "pkt_pts": 4404400,
            "pkt_pts_time": "146.813333",
            "pkt_dts": 4404400,
            "pkt_dts_time": "146.813333",
            "best_effort_timestamp": 4404400,
            "best_effort_timestamp_time": "146.813333",
            "pkt_duration": 1001,
            "pkt_duration_time": "0.033367",
            "pkt_pos": "45748222",
            "pkt_size": "2764800",
            "width": 1280,
            "height": 720,
            "pix_fmt": "rgb24",
            "sample_aspect_ratio": "1:1",
            "pict_type": "I",
            "coded_picture_number": 0,
            "display_picture_number": 0,
            "interlaced_frame": 0,
            "top_field_first": 0,
            "repeat_pict": 0,
            "tags": {
                "lavfi.scene_score": "0.596489"
            }
        },
        {
            "media_type": "video",
            "key_frame": 1,
            "pkt_pts": 4439435,
            "pkt_pts_time": "147.981167",
            "pkt_dts": 4439435,
            "pkt_dts_time": "147.981167",
            "best_effort_timestamp": 4439435,
            "best_effort_timestamp_time": "147.981167",
            "pkt_duration": 1001,
            "pkt_duration_time": "0.033367",
            "pkt_pos": "45925762",
            "pkt_size": "2764800",
            "width": 1280,
            "height": 720,
            "pix_fmt": "rgb24",
            "sample_aspect_ratio": "1:1",
            "pict_type": "I",
            "coded_picture_number": 0,
            "display_picture_number": 0,
            "interlaced_frame": 0,
            "top_field_first": 0,
            "repeat_pict": 0,
            "tags": {
                "lavfi.scene_score": "0.828703"
            }
        },
        {
            "media_type": "video",
            "key_frame": 1,
            "pkt_pts": 4484480,
            "pkt_pts_time": "149.482667",
            "pkt_dts": 4484480,
            "pkt_dts_time": "149.482667",
            "best_effort_timestamp": 4484480,
            "best_effort_timestamp_time": "149.482667",
            "pkt_duration": 1001,
            "pkt_duration_time": "0.033367",
            "pkt_pos": "46157957",
            "pkt_size": "2764800",
            "width": 1280,
            "height": 720,
            "pix_fmt": "rgb24",
            "sample_aspect_ratio": "1:1",
            "pict_type": "I",
            "coded_picture_number": 0,
            "display_picture_number": 0,
            "interlaced_frame": 0,
            "top_field_first": 0,
            "repeat_pict": 0,
            "tags": {
                "lavfi.scene_score": "0.902771"
            }
        },
        {
            "media_type": "video",
            "key_frame": 1,
            "pkt_pts": 4536532,
            "pkt_pts_time": "151.217733",
            "pkt_dts": 4536532,
            "pkt_dts_time": "151.217733",
            "best_effort_timestamp": 4536532,
            "best_effort_timestamp_time": "151.217733",
            "pkt_duration": 1001,
            "pkt_duration_time": "0.033367",
            "pkt_pos": "46376223",
            "pkt_size": "2764800",
            "width": 1280,
            "height": 720,
            "pix_fmt": "rgb24",
            "sample_aspect_ratio": "1:1",
            "pict_type": "I",
            "coded_picture_number": 0,
            "display_picture_number": 0,
            "interlaced_frame": 0,
            "top_field_first": 0,
            "repeat_pict": 0,
            "tags": {
                "lavfi.scene_score": "0.574086"
            }
        },
        {
            "media_type": "video",
            "key_frame": 1,
            "pkt_pts": 4579575,
            "pkt_pts_time": "152.652500",
            "pkt_dts": 4579575,
            "pkt_dts_time": "152.652500",
            "best_effort_timestamp": 4579575,
            "best_effort_timestamp_time": "152.652500",
            "pkt_duration": 1001,
            "pkt_duration_time": "0.033367",
            "pkt_pos": "46692978",
            "pkt_size": "2764800",
            "width": 1280,
            "height": 720,
            "pix_fmt": "rgb24",
            "sample_aspect_ratio": "1:1",
            "pict_type": "I",
            "coded_picture_number": 0,
            "display_picture_number": 0,
            "interlaced_frame": 0,
            "top_field_first": 0,
            "repeat_pict": 0,
            "tags": {
                "lavfi.scene_score": "0.482050"
            }
        },
        {
            "media_type": "video",
            "key_frame": 1,
            "pkt_pts": 4639635,
            "pkt_pts_time": "154.654500",
            "pkt_dts": 4639635,
            "pkt_dts_time": "154.654500",
            "best_effort_timestamp": 4639635,
            "best_effort_timestamp_time": "154.654500",
            "pkt_duration": 1001,
            "pkt_duration_time": "0.033367",
            "pkt_pos": "46993899",
            "pkt_size": "2764800",
            "width": 1280,
            "height": 720,
            "pix_fmt": "rgb24",
            "sample_aspect_ratio": "1:1",
            "pict_type": "I",
            "coded_picture_number": 0,
            "display_picture_number": 0,
            "interlaced_frame": 0,
            "top_field_first": 0,
            "repeat_pict": 0,
            "tags": {
                "lavfi.scene_score": "0.496386"
            }
        },
        {
            "media_type": "video",
            "key_frame": 1,
            "pkt_pts": 4804800,
            "pkt_pts_time": "160.160000",
            "pkt_dts": 4804800,
            "pkt_dts_time": "160.160000",
            "best_effort_timestamp": 4804800,
            "best_effort_timestamp_time": "160.160000",
            "pkt_duration": 1001,
            "pkt_duration_time": "0.033367",
            "pkt_pos": "47724406",
            "pkt_size": "2764800",
            "width": 1280,
            "height": 720,
            "pix_fmt": "rgb24",
            "sample_aspect_ratio": "1:1",
            "pict_type": "I",
            "coded_picture_number": 0,
            "display_picture_number": 0,
            "interlaced_frame": 0,
            "top_field_first": 0,
            "repeat_pict": 0,
            "tags": {
                "lavfi.scene_score": "0.578990"
            }
        },
        {
            "media_type": "video",
            "key_frame": 1,
            "pkt_pts": 4950946,
            "pkt_pts_time": "165.031533",
            "pkt_dts": 4950946,
            "pkt_dts_time": "165.031533",
            "best_effort_timestamp": 4950946,
            "best_effort_timestamp_time": "165.031533",
            "pkt_duration": 1001,
            "pkt_duration_time": "0.033367",
            "pkt_pos": "48703049",
            "pkt_size": "2764800",
            "width": 1280,
            "height": 720,
            "pix_fmt": "rgb24",
            "sample_aspect_ratio": "1:1",
            "pict_type": "I",
            "coded_picture_number": 0,
            "display_picture_number": 0,
            "interlaced_frame": 0,
            "top_field_first": 0,
            "repeat_pict": 0,
            "tags": {
                "lavfi.scene_score": "0.624830"
            }
        },
        {
            "media_type": "video",
            "key_frame": 1,
            "pkt_pts": 5121116,
            "pkt_pts_time": "170.703867",
            "pkt_dts": 5121116,
            "pkt_dts_time": "170.703867",
            "best_effort_timestamp": 5121116,
            "best_effort_timestamp_time": "170.703867",
            "pkt_duration": 1001,
            "pkt_duration_time": "0.033367",
            "pkt_pos": "49815408",
            "pkt_size": "2764800",
            "width": 1280,
            "height": 720,
            "pix_fmt": "rgb24",
            "sample_aspect_ratio": "1:1",
            "pict_type": "I",
            "coded_picture_number": 0,
            "display_picture_number": 0,
            "interlaced_frame": 0,
            "top_field_first": 0,
            "repeat_pict": 0,
            "tags": {
                "lavfi.scene_score": "0.617611"
            }
        },
        {
            "media_type": "video",
            "key_frame": 1,
            "pkt_pts": 5178173,
            "pkt_pts_time": "172.605767",
            "pkt_dts": 5178173,
            "pkt_dts_time": "172.605767",
            "best_effort_timestamp": 5178173,
            "best_effort_timestamp_time": "172.605767",
            "pkt_duration": 1001,
            "pkt_duration_time": "0.033367",
            "pkt_pos": "50151541",
            "pkt_size": "2764800",
            "width": 1280,
            "height": 720,
            "pix_fmt": "rgb24",
            "sample_aspect_ratio": "1:1",
            "pict_type": "I",
            "coded_picture_number": 0,
            "display_picture_number": 0,
            "interlaced_frame": 0,
            "top_field_first": 0,
            "repeat_pict": 0,
            "tags": {
                "lavfi.scene_score": "0.407522"
            }
        },
        {
            "media_type": "video",
            "key_frame": 1,
            "pkt_pts": 5627622,
            "pkt_pts_time": "187.587400",
            "pkt_dts": 5627622,
            "pkt_dts_time": "187.587400",
            "best_effort_timestamp": 5627622,
            "best_effort_timestamp_time": "187.587400",
            "pkt_duration": 1001,
            "pkt_duration_time": "0.033367",
            "pkt_pos": "52315212",
            "pkt_size": "2764800",
            "width": 1280,
            "height": 720,
            "pix_fmt": "rgb24",
            "sample_aspect_ratio": "1:1",
            "pict_type": "I",
            "coded_picture_number": 0,
            "display_picture_number": 0,
            "interlaced_frame": 0,
            "top_field_first": 0,
            "repeat_pict": 0,
            "tags": {
                "lavfi.scene_score": "0.427191"
            }
        },
        {
            "media_type": "video",
            "key_frame": 1,
            "pkt_pts": 6010004,
            "pkt_pts_time": "200.333467",
            "pkt_dts": 6010004,
            "pkt_dts_time": "200.333467",
            "best_effort_timestamp": 6010004,
            "best_effort_timestamp_time": "200.333467",
            "pkt_duration": 1001,
            "pkt_duration_time": "0.033367",
            "pkt_pos": "54242994",
            "pkt_size": "2764800",
            "width": 1280,
            "height": 720,
            "pix_fmt": "rgb24",
            "sample_aspect_ratio": "1:1",
            "pict_type": "I",
            "coded_picture_number": 0,
            "display_picture_number": 0,
            "interlaced_frame": 0,
            "top_field_first": 0,
            "repeat_pict": 0,
            "tags": {
                "lavfi.scene_score": "0.456236"
            }
        },
        {
            "media_type": "video",
            "key_frame": 1,
            "pkt_pts": 6269263,
            "pkt_pts_time": "208.975433",
            "pkt_dts": 6269263,
            "pkt_dts_time": "208.975433",
            "best_effort_timestamp": 6269263,
            "best_effort_timestamp_time": "208.975433",
            "pkt_duration": 1001,
            "pkt_duration_time": "0.033367",
            "pkt_pos": "55635977",
            "pkt_size": "2764800",
            "width": 1280,
            "height": 720,
            "pix_fmt": "rgb24",
            "sample_aspect_ratio": "1:1",
            "pict_type": "I",
            "coded_picture_number": 0,
            "display_picture_number": 0,
            "interlaced_frame": 0,
            "top_field_first": 0,
            "repeat_pict": 0,
            "tags": {
                "lavfi.scene_score": "0.507596"
            }
        },
        {
            "media_type": "video",
            "key_frame": 1,
            "pkt_pts": 6427421,
            "pkt_pts_time": "214.247367",
            "pkt_dts": 6427421,
            "pkt_dts_time": "214.247367",
            "best_effort_timestamp": 6427421,
            "best_effort_timestamp_time": "214.247367",
            "pkt_duration": 1001,
            "pkt_duration_time": "0.033367",
            "pkt_pos": "56390655",
            "pkt_size": "2764800",
            "width": 1280,
            "height": 720,
            "pix_fmt": "rgb24",
            "sample_aspect_ratio": "1:1",
            "pict_type": "I",
            "coded_picture_number": 0,
            "display_picture_number": 0,
            "interlaced_frame": 0,
            "top_field_first": 0,
            "repeat_pict": 0,
            "tags": {
                "lavfi.scene_score": "0.392836"
            }
        },
        {
            "media_type": "video",
            "key_frame": 1,
            "pkt_pts": 6664658,
            "pkt_pts_time": "222.155267",
            "pkt_dts": 6664658,
            "pkt_dts_time": "222.155267",
            "best_effort_timestamp": 6664658,
            "best_effort_timestamp_time": "222.155267",
            "pkt_duration": 1001,
            "pkt_duration_time": "0.033367",
            "pkt_pos": "57564135",
            "pkt_size": "2764800",
            "width": 1280,
            "height": 720,
            "pix_fmt": "rgb24",
            "sample_aspect_ratio": "1:1",
            "pict_type": "I",
            "coded_picture_number": 0,
            "display_picture_number": 0,
            "interlaced_frame": 0,
            "top_field_first": 0,
            "repeat_pict": 0,
            "tags": {
                "lavfi.scene_score": "0.392464"
            }
        },
        {
            "media_type": "video",
            "key_frame": 1,
            "pkt_pts": 6706700,
            "pkt_pts_time": "223.556667",
            "pkt_dts": 6706700,
            "pkt_dts_time": "223.556667",
            "best_effort_timestamp": 6706700,
            "best_effort_timestamp_time": "223.556667",
            "pkt_duration": 1001,
            "pkt_duration_time": "0.033367",
            "pkt_pos": "57756406",
            "pkt_size": "2764800",
            "width": 1280,
            "height": 720,
            "pix_fmt": "rgb24",
            "sample_aspect_ratio": "1:1",
            "pict_type": "I",
            "coded_picture_number": 0,
            "display_picture_number": 0,
            "interlaced_frame": 0,
            "top_field_first": 0,
            "repeat_pict": 0,
            "tags": {
                "lavfi.scene_score": "0.709494"
            }
        },
        {
            "media_type": "video",
            "key_frame": 1,
            "pkt_pts": 6939933,
            "pkt_pts_time": "231.331100",
            "pkt_dts": 6939933,
            "pkt_dts_time": "231.331100",
            "best_effort_timestamp": 6939933,
            "best_effort_timestamp_time": "231.331100",
            "pkt_duration": 1001,
            "pkt_duration_time": "0.033367",
            "pkt_pos": "59292033",
            "pkt_size": "2764800",
            "width": 1280,
            "height": 720,
            "pix_fmt": "rgb24",
            "sample_aspect_ratio": "1:1",
            "pict_type": "I",
            "coded_picture_number": 0,
            "display_picture_number": 0,
            "interlaced_frame": 0,
            "top_field_first": 0,
            "repeat_pict": 0,
            "tags": {
                "lavfi.scene_score": "0.637386"
            }
        },
        {
            "media_type": "video",
            "key_frame": 1,
            "pkt_pts": 7032025,
            "pkt_pts_time": "234.400833",
            "pkt_dts": 7032025,
            "pkt_dts_time": "234.400833",
            "best_effort_timestamp": 7032025,
            "best_effort_timestamp_time": "234.400833",
            "pkt_duration": 1001,
            "pkt_duration_time": "0.033367",
            "pkt_pos": "59803971",
            "pkt_size": "2764800",
            "width": 1280,
            "height": 720,
            "pix_fmt": "rgb24",
            "sample_aspect_ratio": "1:1",
            "pict_type": "I",
            "coded_picture_number": 0,
            "display_picture_number": 0,
            "interlaced_frame": 0,
            "top_field_first": 0,
            "repeat_pict": 0,
            "tags": {
                "lavfi.scene_score": "0.506572"
            }
        },
        {
            "media_type": "video",
            "key_frame": 1,
            "pkt_pts": 7223216,
            "pkt_pts_time": "240.773867",
            "pkt_dts": 7223216,
            "pkt_dts_time": "240.773867",
            "best_effort_timestamp": 7223216,
            "best_effort_timestamp_time": "240.773867",
            "pkt_duration": 1001,
            "pkt_duration_time": "0.033367",
            "pkt_pos": "61524214",
            "pkt_size": "2764800",
            "width": 1280,
            "height": 720,
            "pix_fmt": "rgb24",
            "sample_aspect_ratio": "1:1",
            "pict_type": "I",
            "coded_picture_number": 0,
            "display_picture_number": 0,
            "interlaced_frame": 0,
            "top_field_first": 0,
            "repeat_pict": 0,
            "tags": {
                "lavfi.scene_score": "0.542474"
            }
        },
        {
            "media_type": "video",
            "key_frame": 1,
            "pkt_pts": 7456449,
            "pkt_pts_time": "248.548300",
            "pkt_dts": 7456449,
            "pkt_dts_time": "248.548300",
            "best_effort_timestamp": 7456449,
            "best_effort_timestamp_time": "248.548300",
            "pkt_duration": 1001,
            "pkt_duration_time": "0.033367",
            "pkt_pos": "63530395",
            "pkt_size": "2764800",
            "width": 1280,
            "height": 720,
            "pix_fmt": "rgb24",
            "sample_aspect_ratio": "1:1",
            "pict_type": "I",
            "coded_picture_number": 0,
            "display_picture_number": 0,
            "interlaced_frame": 0,
            "top_field_first": 0,
            "repeat_pict": 0,
            "tags": {
                "lavfi.scene_score": "0.512088"
            }
        },
        {
            "media_type": "video",
            "key_frame": 1,
            "pkt_pts": 7477470,
            "pkt_pts_time": "249.249000",
            "pkt_dts": 7477470,
            "pkt_dts_time": "249.249000",
            "best_effort_timestamp": 7477470,
            "best_effort_timestamp_time": "249.249000",
            "pkt_duration": 1001,
            "pkt_duration_time": "0.033367",
            "pkt_pos": "63824634",
            "pkt_size": "2764800",
            "width": 1280,
            "height": 720,
            "pix_fmt": "rgb24",
            "sample_aspect_ratio": "1:1",
            "pict_type": "I",
            "coded_picture_number": 0,
            "display_picture_number": 0,
            "interlaced_frame": 0,
            "top_field_first": 0,
            "repeat_pict": 0,
            "tags": {
                "lavfi.scene_score": "0.475600"
            }
        },
        {
            "media_type": "video",
            "key_frame": 1,
            "pkt_pts": 7494487,
            "pkt_pts_time": "249.816233",
            "pkt_dts": 7494487,
            "pkt_dts_time": "249.816233",
            "best_effort_timestamp": 7494487,
            "best_effort_timestamp_time": "249.816233",
            "pkt_duration": 1001,
            "pkt_duration_time": "0.033367",
            "pkt_pos": "63992062",
            "pkt_size": "2764800",
            "width": 1280,
            "height": 720,
            "pix_fmt": "rgb24",
            "sample_aspect_ratio": "1:1",
            "pict_type": "I",
            "coded_picture_number": 0,
            "display_picture_number": 0,
            "interlaced_frame": 0,
            "top_field_first": 0,
            "repeat_pict": 0,
            "tags": {
                "lavfi.scene_score": "0.449805"
            }
        },
        {
            "media_type": "video",
            "key_frame": 1,
            "pkt_pts": 7527520,
            "pkt_pts_time": "250.917333",
            "pkt_dts": 7527520,
            "pkt_dts_time": "250.917333",
            "best_effort_timestamp": 7527520,
            "best_effort_timestamp_time": "250.917333",
            "pkt_duration": 1001,
            "pkt_duration_time": "0.033367",
            "pkt_pos": "64315952",
            "pkt_size": "2764800",
            "width": 1280,
            "height": 720,
            "pix_fmt": "rgb24",
            "sample_aspect_ratio": "1:1",
            "pict_type": "I",
            "coded_picture_number": 0,
            "display_picture_number": 0,
            "interlaced_frame": 0,
            "top_field_first": 0,
            "repeat_pict": 0,
            "tags": {
                "lavfi.scene_score": "0.830001"
            }
        },
        {
            "media_type": "video",
            "key_frame": 1,
            "pkt_pts": 7555548,
            "pkt_pts_time": "251.851600",
            "pkt_dts": 7555548,
            "pkt_dts_time": "251.851600",
            "best_effort_timestamp": 7555548,
            "best_effort_timestamp_time": "251.851600",
            "pkt_duration": 1001,
            "pkt_duration_time": "0.033367",
            "pkt_pos": "64562919",
            "pkt_size": "2764800",
            "width": 1280,
            "height": 720,
            "pix_fmt": "rgb24",
            "sample_aspect_ratio": "1:1",
            "pict_type": "I",
            "coded_picture_number": 0,
            "display_picture_number": 0,
            "interlaced_frame": 0,
            "top_field_first": 0,
            "repeat_pict": 0,
            "tags": {
                "lavfi.scene_score": "0.465104"
            }
        },
        {
            "media_type": "video",
            "key_frame": 1,
            "pkt_pts": 7577570,
            "pkt_pts_time": "252.585667",
            "pkt_dts": 7577570,
            "pkt_dts_time": "252.585667",
            "best_effort_timestamp": 7577570,
            "best_effort_timestamp_time": "252.585667",
            "pkt_duration": 1001,
            "pkt_duration_time": "0.033367",
            "pkt_pos": "64718041",
            "pkt_size": "2764800",
            "width": 1280,
            "height": 720,
            "pix_fmt": "rgb24",
            "sample_aspect_ratio": "1:1",
            "pict_type": "I",
            "coded_picture_number": 0,
            "display_picture_number": 0,
            "interlaced_frame": 0,
            "top_field_first": 0,
            "repeat_pict": 0,
            "tags": {
                "lavfi.scene_score": "0.335390"
            }
        },
        {
            "media_type": "video",
            "key_frame": 1,
            "pkt_pts": 7597590,
            "pkt_pts_time": "253.253000",
            "pkt_dts": 7597590,
            "pkt_dts_time": "253.253000",
            "best_effort_timestamp": 7597590,
            "best_effort_timestamp_time": "253.253000",
            "pkt_duration": 1001,
            "pkt_duration_time": "0.033367",
            "pkt_pos": "64877164",
            "pkt_size": "2764800",
            "width": 1280,
            "height": 720,
            "pix_fmt": "rgb24",
            "sample_aspect_ratio": "1:1",
            "pict_type": "I",
            "coded_picture_number": 0,
            "display_picture_number": 0,
            "interlaced_frame": 0,
            "top_field_first": 0,
            "repeat_pict": 0,
            "tags": {
                "lavfi.scene_score": "0.785022"
            }
        },
        {
            "media_type": "video",
            "key_frame": 1,
            "pkt_pts": 7610603,
            "pkt_pts_time": "253.686767",
            "pkt_dts": 7610603,
            "pkt_dts_time": "253.686767",
            "best_effort_timestamp": 7610603,
            "best_effort_timestamp_time": "253.686767",
            "pkt_duration": 1001,
            "pkt_duration_time": "0.033367",
            "pkt_pos": "64996992",
            "pkt_size": "2764800",
            "width": 1280,
            "height": 720,
            "pix_fmt": "rgb24",
            "sample_aspect_ratio": "1:1",
            "pict_type": "I",
            "coded_picture_number": 0,
            "display_picture_number": 0,
            "interlaced_frame": 0,
            "top_field_first": 0,
            "repeat_pict": 0,
            "tags": {
                "lavfi.scene_score": "0.422710"
            }
        },
        {
            "media_type": "video",
            "key_frame": 1,
            "pkt_pts": 7654647,
            "pkt_pts_time": "255.154900",
            "pkt_dts": 7654647,
            "pkt_dts_time": "255.154900",
            "best_effort_timestamp": 7654647,
            "best_effort_timestamp_time": "255.154900",
            "pkt_duration": 1001,
            "pkt_duration_time": "0.033367",
            "pkt_pos": "65369494",
            "pkt_size": "2764800",
            "width": 1280,
            "height": 720,
            "pix_fmt": "rgb24",
            "sample_aspect_ratio": "1:1",
            "pict_type": "I",
            "coded_picture_number": 0,
            "display_picture_number": 0,
            "interlaced_frame": 0,
            "top_field_first": 0,
            "repeat_pict": 0,
            "tags": {
                "lavfi.scene_score": "0.475484"
            }
        },
        {
            "media_type": "video",
            "key_frame": 1,
            "pkt_pts": 7657650,
            "pkt_pts_time": "255.255000",
            "pkt_dts": 7657650,
            "pkt_dts_time": "255.255000",
            "best_effort_timestamp": 7657650,
            "best_effort_timestamp_time": "255.255000",
            "pkt_duration": 1001,
            "pkt_duration_time": "0.033367",
            "pkt_pos": "65403653",
            "pkt_size": "2764800",
            "width": 1280,
            "height": 720,
            "pix_fmt": "rgb24",
            "sample_aspect_ratio": "1:1",
            "pict_type": "I",
            "coded_picture_number": 0,
            "display_picture_number": 0,
            "interlaced_frame": 0,
            "top_field_first": 0,
            "repeat_pict": 0,
            "tags": {
                "lavfi.scene_score": "0.442167"
            }
        },
        {
            "media_type": "video",
            "key_frame": 1,
            "pkt_pts": 7659652,
            "pkt_pts_time": "255.321733",
            "pkt_dts": 7659652,
            "pkt_dts_time": "255.321733",
            "best_effort_timestamp": 7659652,
            "best_effort_timestamp_time": "255.321733",
            "pkt_duration": 1001,
            "pkt_duration_time": "0.033367",
            "pkt_pos": "65436142",
            "pkt_size": "2764800",
            "width": 1280,
            "height": 720,
            "pix_fmt": "rgb24",
            "sample_aspect_ratio": "1:1",
            "pict_type": "I",
            "coded_picture_number": 0,
            "display_picture_number": 0,
            "interlaced_frame": 0,
            "top_field_first": 0,
            "repeat_pict": 0,
            "tags": {
                "lavfi.scene_score": "0.392585"
            }
        },
        {
            "media_type": "video",
            "key_frame": 1,
            "pkt_pts": 7670663,
            "pkt_pts_time": "255.688767",
            "pkt_dts": 7670663,
            "pkt_dts_time": "255.688767",
            "best_effort_timestamp": 7670663,
            "best_effort_timestamp_time": "255.688767",
            "pkt_duration": 1001,
            "pkt_duration_time": "0.033367",
            "pkt_pos": "65578071",
            "pkt_size": "2764800",
            "width": 1280,
            "height": 720,
            "pix_fmt": "rgb24",
            "sample_aspect_ratio": "1:1",
            "pict_type": "I",
            "coded_picture_number": 0,
            "display_picture_number": 0,
            "interlaced_frame": 0,
            "top_field_first": 0,
            "repeat_pict": 0,
            "tags": {
                "lavfi.scene_score": "0.317215"
            }
        },
        {
            "media_type": "video",
            "key_frame": 1,
            "pkt_pts": 7735728,
            "pkt_pts_time": "257.857600",
            "pkt_dts": 7735728,
            "pkt_dts_time": "257.857600",
            "best_effort_timestamp": 7735728,
            "best_effort_timestamp_time": "257.857600",
            "pkt_duration": 1001,
            "pkt_duration_time": "0.033367",
            "pkt_pos": "66065732",
            "pkt_size": "2764800",
            "width": 1280,
            "height": 720,
            "pix_fmt": "rgb24",
            "sample_aspect_ratio": "1:1",
            "pict_type": "I",
            "coded_picture_number": 0,
            "display_picture_number": 0,
            "interlaced_frame": 0,
            "top_field_first": 0,
            "repeat_pict": 0,
            "tags": {
                "lavfi.scene_score": "0.366020"
            }
        }
    ]
}
